<svg xmlns="http://www.w3.org/2000/svg" viewBox="0 0 492.44 102.46"><defs><style>.cls-1{fill:#fff;}</style></defs><title>ridlz-logo</title><g id="Layer_2" data-name="Layer 2"><g id="Layer_1-2" data-name="Layer 1"><path class="cls-1" d="M51.33,55.1a27.87,27.87,0,0,0,3.15-6.89,26.78,26.78,0,0,0,1.14-7.86,26.07,26.07,0,0,0-2.17-10.57,28.06,28.06,0,0,0-5.86-8.62A27.74,27.74,0,0,0,39,15.31,25.87,25.87,0,0,0,28.4,13.14H0V89H13V26.15H28.4a14.27,14.27,0,0,1,13.12,8.78,14,14,0,0,1,0,10.84,15.1,15.1,0,0,1-3,4.66A13.77,13.77,0,0,1,28.4,54.66H22.77l-5.31,13h8.88L40.11,89H55.62L40.11,65a26.21,26.21,0,0,0,6.35-4.17A27.06,27.06,0,0,0,51.33,55.1Z"/><rect class="cls-1" x="103.86" y="13.25" width="13.01" height="75.78"/><polygon class="cls-1" points="302.8 13.25 289.79 13.25 289.79 76.02 289.79 89.03 302.8 89.03 332.61 89.03 332.61 76.02 302.8 76.02 302.8 13.25"/><polygon class="cls-1" points="377.61 13.14 377.61 26.15 417.29 26.15 377.61 78.4 377.61 89.03 385.85 89.03 435.5 89.03 435.5 76.02 395.82 76.02 435.5 23.76 435.5 13.14 427.26 13.14 377.61 13.14"/><path class="cls-1" d="M458.26,16h5.35V30h3.18V16h5.36V13.1H458.26Z"/><polygon class="cls-1" points="488.8 13.13 483.52 20.39 478.23 13.13 474.57 13.13 474.57 30.01 477.75 30.01 477.75 17.73 483.13 25.09 483.76 25.09 489.26 17.76 489.26 30.01 492.44 30.01 492.44 13.13 488.8 13.13"/><path class="cls-1" d="M199.52,0q-19,0-38.06,0c-1.23,0-2.47.12-4,.19V16.93q0,31,0,62c0,2.11.47,3.16,2.9,3.15,13.26-.08,26.52,0,39.78,0,13,0,27.72-10,30.06-26.17,2.52-17.34-8.5-33.4-25.83-35.6-8-1-16.25-.4-24.38-.69-2.62-.1-3.39.77-3.35,3.37.13,10.91.06,21.81.06,32.71,0,6.27,0,6.27,6,7,5,.58,5.56.08,5.56-4.8,0-8.13.08-16.27,0-24.4,0-2.46.78-3.31,3.23-3.14,2.66.2,5.35.11,8,.07,9.93-.16,19.77,7,20.21,18.65.48,12.42-7.59,20.73-19.61,21.34-9.41.47-18.86.06-28.28.12C170,70.51,169,70,169,68c-.11-6.39-.46-12.77-.48-19.16,0-8,.22-16,.31-24,0-4,0-8,0-12.35,10.95,0,21.07-.1,31.18,0,23.93.29,45.51,22.33,35.89,51.92-4.94,15.19-17,23.86-33.36,25.15-7.53.59-15.13.16-22.69.38-1.08,0-3,1-3,1.62-.3,3.53-.14,7.11-.14,11,8.17,0,15.61,0,23,0,29.81-.1,53.7-25.63,50.89-55.79A51,51,0,0,0,199.52,0Z"/></g></g></svg>