<svg xmlns="http://www.w3.org/2000/svg" viewBox="0 0 69.49 68.95"><defs><style>.cls-1,.cls-2,.cls-3{fill:none;stroke:#b3b3b3;stroke-miterlimit:10;}.cls-1{stroke-width:2px;}.cls-2,.cls-3{stroke-width:1.5px;}.cls-3{stroke-linecap:round;}</style></defs><title>icon-magnifier</title><g id="Layer_2" data-name="Layer 2"><g id="Layer_1-2" data-name="Layer 1"><ellipse class="cls-1" cx="25.35" cy="25.35" rx="24.74" ry="23.97" transform="translate(-10.5 25.35) rotate(-45)"/><ellipse class="cls-2" cx="25.35" cy="25.35" rx="20.17" ry="19.54" transform="translate(-10.5 25.35) rotate(-45)"/><path class="cls-3" d="M15.19,15.19a14.61,14.61,0,0,1,20.66-.33"/><rect class="cls-2" x="41.27" y="41.35" width="8.85" height="7.61" transform="translate(45.32 -19.09) rotate(45)"/><path class="cls-2" d="M52.49,57h14a3.75,3.75,0,0,1,3.75,3.75v.12a3.75,3.75,0,0,1-3.75,3.75h-14a0,0,0,0,1,0,0V57A0,0,0,0,1,52.49,57Z" transform="translate(60.96 -25.57) rotate(45)"/><rect class="cls-2" x="47.53" y="49.13" width="8.85" height="4.57" transform="translate(51.57 -21.68) rotate(45)"/></g></g></svg>