<svg xmlns="http://www.w3.org/2000/svg" viewBox="0 0 20.5 20.5"><defs><style>.cls-1{fill:#ef7918;}.cls-2{fill:#fff;}</style></defs><title>icon-hint</title><g id="Layer_2" data-name="Layer 2"><g id="Layer_1-2" data-name="Layer 1"><rect class="cls-1" width="20.5" height="20.5"/><path class="cls-2" d="M15.07,8.46a10.66,10.66,0,0,1-1.42,1.68l-.44.46a3.79,3.79,0,0,0-.52.62,5.28,5.28,0,0,1-.35.45.45.45,0,0,1-.33.1H8a.36.36,0,0,1-.25-.1.3.3,0,0,1-.11-.24.34.34,0,0,1,0-.15,3.46,3.46,0,0,1,.67-1.19A10.64,10.64,0,0,1,9.45,8.88,11.48,11.48,0,0,0,10.29,8a.91.91,0,0,0,.26-.58A.58.58,0,0,0,10.37,7a.71.71,0,0,0-.46-.16,1.18,1.18,0,0,0-.7.17,1.57,1.57,0,0,0-.38.5,1.21,1.21,0,0,1-.28.38A.57.57,0,0,1,8.13,8H4.61a.41.41,0,0,1-.34-.17.65.65,0,0,1-.14-.4v0a3.85,3.85,0,0,1,.72-2A5.1,5.1,0,0,1,6.9,3.77a7.75,7.75,0,0,1,3.35-.65,7.29,7.29,0,0,1,3.19.59A3.69,3.69,0,0,1,15.1,5.1a3.13,3.13,0,0,1,.46,1.56A3.19,3.19,0,0,1,15.07,8.46ZM12,12.68a.49.49,0,0,1,.15.36v3a.51.51,0,0,1-.51.51H8.15a.49.49,0,0,1-.36-.15.46.46,0,0,1-.16-.36V13a.46.46,0,0,1,.16-.36.49.49,0,0,1,.36-.15h3.46A.49.49,0,0,1,12,12.68Z"/></g></g></svg>